Coordinates
version=1
nRows=26
nColumns=24
inDegrees=yes

Units are S.I. units (second, meters, Newtons, ...)
Angles are in degrees.

endheader
time	pelvis_tilt	pelvis_list	pelvis_rotation	pelvis_tx	pelvis_ty	pelvis_tz	hip_flexion_r	hip_adduction_r	hip_rotation_r	knee_angle_r	ankle_angle_r	subtalar_angle_r	mtp_angle_r	hip_flexion_l	hip_adduction_l	hip_rotation_l	knee_angle_l	ankle_angle_l	subtalar_angle_l	mtp_angle_l	lumbar_extension	lumbar_bending	lumbar_rotation
      2.27000000	     25.21683910	      0.46425334	      3.14749333	      0.48165567	      0.84687059	     -0.00227960	    -33.53090352	     -0.45523337	    -20.73549976	    -45.19232809	     20.50584338	     11.05030386	     54.24965484	     -7.75141068	      2.23484704	     -9.45297193	    -17.27742127	     11.47652043	     -3.10687167	    122.37967823	    -38.66779486	     -1.75477236	    -12.93490676
      2.27500000	     25.12794859	      0.74882206	      3.08641544	      0.48779031	      0.84732989	     -0.00269034	    -32.63984155	     -1.13072485	    -20.81927847	    -47.34639833	     19.48142194	     10.07968896	     54.28583273	     -8.05157504	      2.57450363	     -9.32236393	    -17.49925655	     11.81947750	     -3.13449883	    122.38342243	    -38.56465800	     -2.09606487	    -13.07013180
      2.28000000	     25.05205109	      1.00955073	      3.03375074	      0.49389605	      0.84783029	     -0.00310004	    -31.76708127	     -1.75644713	    -20.85457337	    -49.35380666	     18.58477372	      9.05728240	     54.21214275	     -8.39243103	      2.88531001	     -9.21791232	    -17.65549835	     12.18173336	     -3.11206315	    122.39037226	    -38.47532833	     -2.40625784	    -13.18855042
      2.28500000	     24.97680542	      1.23353146	      2.99455643	      0.49996073	      0.84836744	     -0.00348606	    -30.89385763	     -2.31324497	    -20.84406949	    -51.21785879	     17.84227915	      7.97458375	     53.99535009	     -8.75053723	      3.14865560	     -9.13450391	    -17.76488875	     12.56204016	     -3.03595250	    122.40379411	    -38.38689407	     -2.67453098	    -13.29058604
      2.29000000	     24.92052083	      1.39790753	      2.99100400	      0.50598486	      0.84894280	     -0.00388565	    -30.05035206	     -2.75367643	    -20.77735783	    -52.91364131	     17.34779696	      6.91172145	     52.57841460	     -9.12784858	      3.32827768	     -9.08967058	    -17.87336925	     13.06758661	     -2.76699909	    122.53842826	    -38.31795404	     -2.86046893	    -13.40751359
      2.29500000	     24.85726470	      1.55085844	      2.97288229	      0.51196170	      0.84956197	     -0.00426555	    -29.19257601	     -3.17450142	    -20.68334636	    -54.48490839	     17.05929542	      5.88661558	     51.19485129	     -9.52758691	      3.50294225	     -9.06521678	    -17.89807943	     13.46171183	     -2.56206474	    122.61029116	    -38.24464592	     -3.03994159	    -13.49032526
      2.30000000	     24.80567585	      1.64613380	      2.95255829	      0.51785505	      0.85022334	     -0.00462290	    -28.33494423	     -3.50942812	    -20.52433169	    -55.89980576	     16.83414725	      4.77259517	     50.66886704	     -9.95088415	      3.61500724	     -9.06587023	    -17.87564340	     13.82070700	     -2.39546691	    122.62488081	    -38.18707444	     -3.16101670	    -13.52894971
      2.30500000	     24.78903316	      1.72110600	      2.97024852	      0.52374288	      0.85093436	     -0.00497056	    -27.54011235	     -3.77841118	    -20.40347192	    -57.16408233	     17.00757052	      3.87755515	     48.33281945	    -10.39738208	      3.67090048	     -9.13697660	    -17.89721361	     14.28950843	     -1.86600337	    122.75460274	    -38.16513048	     -3.24167514	    -13.60400025
      2.31000000	     24.73056503	      1.75551552	      2.98041598	      0.52946566	      0.85162101	     -0.00537951	    -26.66171271	     -4.00374951	    -20.23512823	    -58.31619062	     17.08878254	      2.80878079	     47.87810162	    -10.81030372	      3.71736804	     -9.11099929	    -17.83866952	     14.58549651	     -1.75141423	    122.76610050	    -38.11414457	     -3.27323305	    -13.61304091
      2.31500000	     24.72749220	      1.74186478	      3.01157099	      0.53522545	      0.85238181	     -0.00567962	    -25.87082564	     -4.13063637	    -20.07473312	    -59.30026651	     17.52046673	      2.01156052	     45.38366780	    -11.26847701	      3.66494552	     -9.22507336	    -17.83708054	     15.08020433	     -1.16778635	    122.88558426	    -38.11246834	     -3.25807158	    -13.65737054
      2.32000000	     24.65452695	      1.69345125	      3.04851530	      0.54081300	      0.85307847	     -0.00605988	    -24.96755281	     -4.21169572	    -19.87834723	    -60.17125168	     17.85012628	      1.01937530	     44.97137510	    -11.65606237	      3.61328420	     -9.19873439	    -17.76224466	     15.38783306	     -1.07673038	    122.89309363	    -38.05525331	     -3.19318982	    -13.68881082
      2.32500000	     24.59124477	      1.59041985	      3.09399283	      0.54635666	      0.85379007	     -0.00636312	    -24.07392398	     -4.20503825	    -19.67792338	    -60.89754867	     18.27644409	      0.06690446	     44.21616638	    -12.02980298	      3.47790580	     -9.24992025	    -17.73791508	     15.78022779	     -0.71846754	    122.91232929	    -38.00818551	     -3.07779885	    -13.68182674
      2.33000000	     24.61143081	      1.49226967	      3.13654206	      0.55189433	      0.85457516	     -0.00666908	    -23.29709177	     -4.19501664	    -19.51282793	    -61.49570584	     19.06562613	     -0.42087021	     41.42636822	    -12.49521529	      3.33681571	     -9.36262210	    -17.72609138	     16.26815465	     -0.22578342	    123.01506337	    -38.04810510	     -2.95637078	    -13.68534104
      2.33500000	     24.54093341	      1.39296339	      3.17488555	      0.55726600	      0.85524973	     -0.00699113	    -22.38587691	     -4.18209577	    -19.33795484	    -62.00397638	     19.69275368	     -1.13874015	     41.22854852	    -12.84785921	      3.22706336	     -9.35194605	    -17.69003593	     16.51890672	     -0.19051190	    123.01302560	    -38.01460772	     -2.83602688	    -13.69764810
      2.34000000	     24.48699939	      1.19747650	      3.21731273	      0.56268149	      0.85595458	     -0.00722230	    -21.50314939	     -4.03039362	    -19.12454382	    -62.34848450	     20.40825509	     -1.63663731	     39.31759804	    -13.21760994	      2.98518507	     -9.45851420	    -17.66467250	     16.97440730	      0.28260353	    123.03874091	    -37.98348030	     -2.62557526	    -13.65303335
      2.34500000	     24.36591227	      1.02845788	      3.26914645	      0.56796458	      0.85654001	     -0.00751675	    -20.53167027	     -3.91139123	    -18.95344333	    -62.61463918	     21.07147128	     -2.15215530	     39.07629425	    -13.49328350	      2.79937323	     -9.44049084	    -17.64537424	     17.23993245	      0.30803079	    123.03574373	    -37.90013060	     -2.42830406	    -13.65166381
      2.35000000	     24.33102366	      0.82708157	      3.30167173	      0.57325183	      0.85720880	     -0.00770565	    -19.67416678	     -3.73292757	    -18.76448671	    -62.73333594	     21.88606492	     -2.41554069	     37.40910578	    -13.86394739	      2.55750637	     -9.52554389	    -17.63969159	     17.64694001	      0.66625893	    123.02604060	    -37.90576943	     -2.21220796	    -13.60090901
      2.35500000	     24.19193994	      0.63881613	      3.34312496	      0.57842177	      0.85770832	     -0.00794047	    -18.67972156	     -3.57157080	    -18.59699016	    -62.79298863	     22.58996291	     -2.68779920	     37.10970039	    -14.09760846	      2.35353101	     -9.49079957	    -17.64734261	     17.91713947	      0.72702898	    123.01716232	    -37.81649737	     -1.99996532	    -13.58818760
      2.36000000	     24.10763281	      0.42576757	      3.35775790	      0.58368167	      0.85827052	     -0.00810450	    -17.78130924	     -3.37354947	    -18.43131957	    -62.67841281	     23.30429038	     -2.83149994	     36.93742685	    -14.40795938	      2.12093412	     -9.57198827	    -17.63781015	     18.24882203	      0.75403116	    122.99830589	    -37.77147978	     -1.77847800	    -13.54903918
      2.36500000	     23.97936378	      0.19990172	      3.37581708	      0.58885724	      0.85872260	     -0.00824889	    -16.82448792	     -3.14544690	    -18.25498754	    -62.48731343	     24.00188223	     -2.87612589	     36.62141505	    -14.64265132	      1.87189413	     -9.63151047	    -17.67419174	     18.60781254	      0.90204689	    122.97218098	    -37.68996779	     -1.54219882	    -13.49879067
      2.37000000	     23.91058136	     -0.02390337	      3.36990017	      0.59406448	      0.85922296	     -0.00831039	    -15.95891952	     -2.90612782	    -18.09036669	    -62.17871456	     24.82923805	     -2.72898104	     34.56144376	    -14.97518051	      1.62167783	     -9.72257782	    -17.64559556	     18.93742950	      1.19907504	    122.85031251	    -37.66946598	     -1.32303217	    -13.43050740
      2.37500000	     23.77612119	     -0.23303930	      3.38069723	      0.59920422	      0.85959048	     -0.00842915	    -15.02574831	     -2.68270591	    -17.95785570	    -61.77826438	     25.47556716	     -2.55784081	     34.51140917	    -15.20884966	      1.40372561	     -9.71803931	    -17.65628218	     19.23660888	      1.16920844	    122.82870712	    -37.58896696	     -1.10351344	    -13.41102936
      2.38000000	     23.67187874	     -0.45918612	      3.37959406	      0.60438404	      0.85996761	     -0.00849218	    -14.15528782	     -2.42686033	    -17.84097092	    -61.23866775	     26.09863526	     -2.36367653	     34.43393162	    -15.48155028	      1.16209909	     -9.78329650	    -17.66423652	     19.54905414	      1.18008061	    122.79543540	    -37.53446706	     -0.87598859	    -13.36009039
      2.38500000	     23.53091844	     -0.67770323	      3.36424602	      0.60958415	      0.86023181	     -0.00851654	    -13.25711998	     -2.17523522	    -17.72652459	    -60.62852760	     26.76610424	     -2.03221107	     33.86279518	    -15.69984256	      0.92132746	     -9.88927689	    -17.71810107	     19.92353540	      1.49412330	    122.67854488	    -37.43923716	     -0.66184067	    -13.31191776
      2.39000000	     23.45420806	     -0.91728597	      3.34753429	      0.61474455	      0.86057553	     -0.00851525	    -12.46052299	     -1.87592141	    -17.60927453	    -59.85772692	     27.27363163	     -1.71947606	     33.76772922	    -16.01017618	      0.67271749	     -9.93560027	    -17.70850035	     20.22059860	      1.38725675	    122.63115493	    -37.41738367	     -0.42868454	    -13.26870607
      2.39500000	     23.35737453	     -1.14987597	      3.33875357	      0.61990636	      0.86083264	     -0.00853217	    -11.66805041	     -1.57947350	    -17.52255363	    -58.99025526	     27.79977092	     -1.31034176	     33.64195618	    -16.28425471	      0.42518556	    -10.00369562	    -17.73343265	     20.55746919	      1.41157676	    122.56545364	    -37.37647091	     -0.19106667	    -13.22345333
